<svg width="259" height="251" viewBox="0 0 259 251" fill="none" xmlns="http://www.w3.org/2000/svg">
<path d="M137.235 99.5747L99.6152 137.192C94.2121 142.594 94.2121 151.354 99.6152 156.757L137.235 194.374C142.638 199.776 151.398 199.776 156.801 194.374L194.421 156.757C199.824 151.354 199.824 142.594 194.421 137.192L156.801 99.5747C151.398 94.172 142.638 94.172 137.235 99.5747Z" fill="#2D2937"/>
<path d="M137.235 99.5747L99.6152 137.192C94.2121 142.594 94.2121 151.354 99.6152 156.757L137.235 194.374C142.638 199.776 151.398 199.776 156.801 194.374L194.421 156.757C199.824 151.354 199.824 142.594 194.421 137.192L156.801 99.5747C151.398 94.172 142.638 94.172 137.235 99.5747Z" fill="#2D2937" fillOpacity="0.2"/>
<path d="M147.01 293.666C137.352 293.7 127.784 291.816 118.86 288.123C109.936 284.431 101.834 279.002 95.025 272.154L87.0273 264.157L121.137 230.049L129.135 238.046C133.863 242.772 140.275 245.427 146.96 245.427C153.645 245.427 160.057 242.772 164.785 238.046L238.023 164.813C242.739 160.084 245.386 153.678 245.386 147C245.386 140.321 242.739 133.916 238.023 129.186L201.454 92.6595L235.564 58.552L272.193 95.1786C285.944 108.96 293.666 127.632 293.666 147.1C293.666 166.567 285.944 185.239 272.193 199.021L198.935 272.254C192.126 279.079 184.03 284.486 175.117 288.161C166.204 291.836 156.651 293.708 147.01 293.666Z" fill="#2D2937"/>
<path d="M147.01 293.666C137.352 293.7 127.784 291.816 118.86 288.123C109.936 284.431 101.834 279.002 95.025 272.154L87.0273 264.157L121.137 230.049L129.135 238.046C133.863 242.772 140.275 245.427 146.96 245.427C153.645 245.427 160.057 242.772 164.785 238.046L238.023 164.813C242.739 160.084 245.386 153.678 245.386 147C245.386 140.321 242.739 133.916 238.023 129.186L201.454 92.6595L235.564 58.552L272.193 95.1786C285.944 108.96 293.666 127.632 293.666 147.1C293.666 166.567 285.944 185.239 272.193 199.021L198.935 272.254C192.126 279.079 184.03 284.486 175.117 288.161C166.204 291.836 156.651 293.708 147.01 293.666Z" fill="#2D2937" fillOpacity="0.2"/>
<path d="M58.3952 235.547L21.8459 198.921C15.0253 192.103 9.61483 184.009 5.92342 175.1C2.23201 166.191 0.332031 156.643 0.332031 147C0.332031 137.357 2.23201 127.808 5.92342 118.899C9.61483 109.99 15.0253 101.896 21.8459 95.0787L95.0845 21.8455C101.902 15.0255 109.997 9.61536 118.907 5.92422C127.816 2.23309 137.366 0.333252 147.009 0.333252C156.653 0.333252 166.203 2.23309 175.112 5.92422C184.021 9.61536 192.116 15.0255 198.934 21.8455L206.932 29.8426L172.822 63.9501L164.824 55.953C160.096 51.2271 153.685 48.5722 146.999 48.5722C140.314 48.5722 133.903 51.2271 129.175 55.953L55.9359 129.186C53.5963 131.525 51.7404 134.303 50.4742 137.359C49.208 140.415 48.5563 143.691 48.5563 147C48.5563 150.308 49.208 153.584 50.4742 156.64C51.7404 159.697 53.5963 162.474 55.9359 164.813L92.5652 201.44L58.3952 235.547Z" fill="#2D2937"/>
<path d="M58.3952 235.547L21.8459 198.921C15.0253 192.103 9.61483 184.009 5.92342 175.1C2.23201 166.191 0.332031 156.643 0.332031 147C0.332031 137.357 2.23201 127.808 5.92342 118.899C9.61483 109.99 15.0253 101.896 21.8459 95.0787L95.0845 21.8455C101.902 15.0255 109.997 9.61536 118.907 5.92422C127.816 2.23309 137.366 0.333252 147.009 0.333252C156.653 0.333252 166.203 2.23309 175.112 5.92422C184.021 9.61536 192.116 15.0255 198.934 21.8455L206.932 29.8426L172.822 63.9501L164.824 55.953C160.096 51.2271 153.685 48.5722 146.999 48.5722C140.314 48.5722 133.903 51.2271 129.175 55.953L55.9359 129.186C53.5963 131.525 51.7404 134.303 50.4742 137.359C49.208 140.415 48.5563 143.691 48.5563 147C48.5563 150.308 49.208 153.584 50.4742 156.64C51.7404 159.697 53.5963 162.474 55.9359 164.813L92.5652 201.44L58.3952 235.547Z" fill="#2D2937" fillOpacity="0.2"/>
<defs>
<radialGradient id="paint0_angular_720_28022" cx="0" cy="0" r="1" gradientUnits="userSpaceOnUse" gradientTransform="translate(165.378 141.436) rotate(93.708) scale(55.6108 55.3894)">
<stop offset="0.124273" stopColor="white" stopOpacity="0.8"/>
<stop offset="0.248809" stopColor="white" stopOpacity="0.9"/>
<stop offset="0.380674" stopColor="white"/>
<stop offset="0.507567" stopColor="white"/>
<stop offset="1" stopColor="white" stopOpacity="0"/>
</radialGradient>
<radialGradient id="paint1_angular_720_28022" cx="0" cy="0" r="1" gradientUnits="userSpaceOnUse" gradientTransform="translate(233.523 202.466) rotate(135.02) scale(150.941 151.597)">
<stop offset="0.124273" stopColor="white" stopOpacity="0.8"/>
<stop offset="0.248809" stopColor="white" stopOpacity="0.9"/>
<stop offset="0.380674" stopColor="white"/>
<stop offset="0.507567" stopColor="white"/>
<stop offset="1" stopColor="white" stopOpacity="0"/>
</radialGradient>
<radialGradient id="paint2_angular_720_28022" cx="0" cy="0" r="1" gradientUnits="userSpaceOnUse" gradientTransform="translate(146.8 144.308) rotate(135.002) scale(150.959 151.615)">
<stop offset="0.124273" stopColor="white" stopOpacity="0.8"/>
<stop offset="0.248809" stopColor="white" stopOpacity="0.9"/>
<stop offset="0.380674" stopColor="white"/>
<stop offset="0.507567" stopColor="white"/>
<stop offset="1" stopColor="white" stopOpacity="0"/>
</radialGradient>
</defs>
</svg>
